<?xml version="1.0" standalone="no"?>
<!DOCTYPE svg PUBLIC "-//W3C//DTD SVG 20010904//EN"
 "http://www.w3.org/TR/2001/REC-SVG-20010904/DTD/svg10.dtd">
<svg version="1.0" xmlns="http://www.w3.org/2000/svg"
 width="626.000000pt" height="626.000000pt" viewBox="0 0 626.000000 626.000000"
 preserveAspectRatio="xMidYMid meet">

<g transform="translate(0.000000,626.000000) scale(0.100000,-0.100000)"
fill="#000000" stroke="none">
<path d="M1910 4835 l0 -55 1200 0 1200 0 0 -1690 0 -1690 -1202 2 -1203 3 -3
1688 -2 1687 -50 0 -50 0 0 -1745 0 -1745 1305 0 1305 0 0 1800 0 1800 -1250
0 -1250 0 0 -55z"/>
<path d="M2890 4395 l0 -55 -55 0 -55 0 0 -160 0 -160 55 0 55 0 0 -55 0 -55
-110 0 -110 0 0 -55 0 -55 -54 0 -55 0 2 -160 1 -160 543 0 543 0 0 160 0 160
-55 0 -55 0 0 55 0 55 -110 0 -110 0 0 55 0 55 55 0 55 0 0 160 0 160 -55 0
-55 0 0 55 0 55 -215 0 -215 0 0 -55z"/>
<path d="M2020 3090 l0 -50 215 0 215 0 0 50 0 50 -215 0 -215 0 0 -50z"/>
<path d="M2890 3090 l0 -50 50 0 50 0 0 50 0 50 -50 0 -50 0 0 -50z"/>
<path d="M3220 3090 l0 -50 430 0 430 0 0 50 0 50 -430 0 -430 0 0 -50z"/>
<path d="M2020 2875 l0 -55 326 0 325 0 -3 53 -3 52 -322 3 -323 2 0 -55z"/>
<path d="M2890 2875 l0 -55 50 0 50 0 0 55 0 55 -50 0 -50 0 0 -55z"/>
<path d="M3220 2875 l0 -55 215 0 215 0 0 55 0 55 -215 0 -215 0 0 -55z"/>
<path d="M2020 2655 l0 -55 215 0 215 0 0 55 0 55 -215 0 -215 0 0 -55z"/>
<path d="M2890 2655 l0 -55 50 0 50 0 0 55 0 55 -50 0 -50 0 0 -55z"/>
<path d="M3220 2655 l0 -55 323 2 322 3 3 53 3 52 -325 0 -326 0 0 -55z"/>
<path d="M2020 2440 l0 -50 105 0 105 0 0 50 0 50 -105 0 -105 0 0 -50z"/>
<path d="M2890 2440 l0 -50 50 0 50 0 0 50 0 50 -50 0 -50 0 0 -50z"/>
<path d="M3220 2440 l0 -50 485 0 485 0 0 50 0 50 -485 0 -485 0 0 -50z"/>
<path d="M3220 2220 l0 -50 430 0 430 0 0 50 0 50 -430 0 -430 0 0 -50z"/>
<path d="M2020 2000 l0 -50 215 0 215 0 0 50 0 50 -215 0 -215 0 0 -50z"/>
<path d="M2890 2000 l0 -50 50 0 50 0 0 50 0 50 -50 0 -50 0 0 -50z"/>
<path d="M3220 2000 l0 -50 215 0 215 0 0 50 0 50 -215 0 -215 0 0 -50z"/>
<path d="M3544 1606 c-3 -8 -4 -31 -2 -52 l3 -39 268 -3 267 -2 0 55 0 55
-265 0 c-218 0 -267 -3 -271 -14z"/>
</g>
</svg>
